<?xml version="1.0" encoding="UTF-8" standalone="no"?><svg xmlns="http://www.w3.org/2000/svg" xmlns:xlink="http://www.w3.org/1999/xlink" contentScriptType="application/ecmascript" contentStyleType="text/css" height="953px" preserveAspectRatio="none" style="width:772px;height:953px;" version="1.1" viewBox="0 0 772 953" width="772px" zoomAndPan="magnify"><defs><filter height="300%" id="f4oruxqjyopc7" width="300%" x="-1" y="-1"><feGaussianBlur result="blurOut" stdDeviation="2.0"/><feColorMatrix in="blurOut" result="blurOut2" type="matrix" values="0 0 0 0 0 0 0 0 0 0 0 0 0 0 0 0 0 0 .4 0"/><feOffset dx="4.0" dy="4.0" in="blurOut2" result="blurOut3"/><feBlend in="SourceGraphic" in2="blurOut3" mode="normal"/></filter></defs><g><!--MD5=[81c1678f3b146417d42d9549aee5a5c0]
class DataSource--><rect codeLine="1" fill="#FEFECE" filter="url(#f4oruxqjyopc7)" height="73.6094" id="DataSource" style="stroke:#A80036;stroke-width:1.5;" width="102" x="192" y="207"/><ellipse cx="207" cy="223" fill="#ADD1B2" rx="11" ry="11" style="stroke:#A80036;stroke-width:1.0;"/><path d="M209.3438,218.6719 C208.4063,218.2344 207.8125,218.0938 206.9375,218.0938 C204.3125,218.0938 202.3125,220.1719 202.3125,222.8906 L202.3125,224.0156 C202.3125,226.5938 204.4219,228.4844 207.3125,228.4844 C208.5313,228.4844 209.6875,228.1875 210.4375,227.6406 C211.0156,227.2344 211.3438,226.7813 211.3438,226.3906 C211.3438,225.9375 210.9531,225.5469 210.4844,225.5469 C210.2656,225.5469 210.0625,225.625 209.875,225.8125 C209.4219,226.2969 209.4219,226.2969 209.2344,226.3906 C208.8125,226.6563 208.125,226.7813 207.3594,226.7813 C205.3125,226.7813 204.0156,225.6875 204.0156,223.9844 L204.0156,222.8906 C204.0156,221.1094 205.2656,219.7969 207,219.7969 C207.5781,219.7969 208.1875,219.9531 208.6563,220.2031 C209.1406,220.4844 209.3125,220.7031 209.4063,221.1094 C209.4688,221.5156 209.5,221.6406 209.6406,221.7656 C209.7813,221.9063 210.0156,222.0156 210.2344,222.0156 C210.5,222.0156 210.7656,221.875 210.9375,221.6563 C211.0469,221.5 211.0781,221.3125 211.0781,220.8906 L211.0781,219.4688 C211.0781,219.0313 211.0625,218.9063 210.9688,218.75 C210.8125,218.4844 210.5313,218.3438 210.2344,218.3438 C209.9375,218.3438 209.7344,218.4375 209.5156,218.75 L209.3438,218.6719 Z " fill="#000000"/><text fill="#000000" font-family="sans-serif" font-size="12" lengthAdjust="spacingAndGlyphs" textLength="70" x="221" y="227.1543">DataSource</text><line style="stroke:#A80036;stroke-width:1.5;" x1="193" x2="293" y1="239" y2="239"/><text fill="#000000" font-family="sans-serif" font-size="11" lengthAdjust="spacingAndGlyphs" textLength="83" x="198" y="253.2104">Data[] sources</text><line style="stroke:#A80036;stroke-width:1.5;" x1="193" x2="293" y1="259.8047" y2="259.8047"/><text fill="#000000" font-family="sans-serif" font-size="11" lengthAdjust="spacingAndGlyphs" textLength="73" x="198" y="274.0151">add_source()</text><!--MD5=[60c9ed31c535bee25c55ce21b5b01399]
class Data--><rect codeLine="6" fill="#FEFECE" filter="url(#f4oruxqjyopc7)" height="150.4375" id="Data" style="stroke:#A80036;stroke-width:1.5;" width="190" x="204" y="343"/><ellipse cx="281.25" cy="359" fill="#ADD1B2" rx="11" ry="11" style="stroke:#A80036;stroke-width:1.0;"/><path d="M283.5938,354.6719 C282.6563,354.2344 282.0625,354.0938 281.1875,354.0938 C278.5625,354.0938 276.5625,356.1719 276.5625,358.8906 L276.5625,360.0156 C276.5625,362.5938 278.6719,364.4844 281.5625,364.4844 C282.7813,364.4844 283.9375,364.1875 284.6875,363.6406 C285.2656,363.2344 285.5938,362.7813 285.5938,362.3906 C285.5938,361.9375 285.2031,361.5469 284.7344,361.5469 C284.5156,361.5469 284.3125,361.625 284.125,361.8125 C283.6719,362.2969 283.6719,362.2969 283.4844,362.3906 C283.0625,362.6563 282.375,362.7813 281.6094,362.7813 C279.5625,362.7813 278.2656,361.6875 278.2656,359.9844 L278.2656,358.8906 C278.2656,357.1094 279.5156,355.7969 281.25,355.7969 C281.8281,355.7969 282.4375,355.9531 282.9063,356.2031 C283.3906,356.4844 283.5625,356.7031 283.6563,357.1094 C283.7188,357.5156 283.75,357.6406 283.8906,357.7656 C284.0313,357.9063 284.2656,358.0156 284.4844,358.0156 C284.75,358.0156 285.0156,357.875 285.1875,357.6563 C285.2969,357.5 285.3281,357.3125 285.3281,356.8906 L285.3281,355.4688 C285.3281,355.0313 285.3125,354.9063 285.2188,354.75 C285.0625,354.4844 284.7813,354.3438 284.4844,354.3438 C284.1875,354.3438 283.9844,354.4375 283.7656,354.75 L283.5938,354.6719 Z " fill="#000000"/><text fill="#000000" font-family="sans-serif" font-size="12" lengthAdjust="spacingAndGlyphs" textLength="27" x="301.75" y="363.1543">Data</text><line style="stroke:#A80036;stroke-width:1.5;" x1="205" x2="393" y1="375" y2="375"/><text fill="#000000" font-family="sans-serif" font-size="11" lengthAdjust="spacingAndGlyphs" textLength="92" x="210" y="389.2104">DataFrame data</text><text fill="#000000" font-family="sans-serif" font-size="11" lengthAdjust="spacingAndGlyphs" textLength="152" x="210" y="402.0151">boolean is_primary_source</text><text fill="#000000" font-family="sans-serif" font-size="11" lengthAdjust="spacingAndGlyphs" textLength="143" x="210" y="414.8198">boolean is_stock_specific</text><line style="stroke:#A80036;stroke-width:1.5;" x1="205" x2="393" y1="421.4141" y2="421.4141"/><text fill="#000000" font-family="sans-serif" font-size="11" lengthAdjust="spacingAndGlyphs" textLength="111" x="210" y="435.6245">get_data_for_date()</text><text fill="#000000" font-family="sans-serif" font-size="11" lengthAdjust="spacingAndGlyphs" textLength="150" x="210" y="448.4292">get_data_for_date_range()</text><text fill="#000000" font-family="sans-serif" font-size="11" lengthAdjust="spacingAndGlyphs" textLength="123" x="210" y="461.2339">get_available_dates()</text><text fill="#000000" font-family="sans-serif" font-size="11" lengthAdjust="spacingAndGlyphs" textLength="178" x="210" y="474.0386">get_available_dates_in_range()</text><text fill="#000000" font-family="sans-serif" font-size="11" lengthAdjust="spacingAndGlyphs" textLength="113" x="210" y="486.8433">add_data_for_date()</text><!--MD5=[1b9cd11a0c46704e25576902f836d42e]
class StockData--><rect codeLine="17" fill="#FEFECE" filter="url(#f4oruxqjyopc7)" height="73.6094" id="StockData" style="stroke:#A80036;stroke-width:1.5;" width="157" x="220.5" y="693"/><ellipse cx="264.3" cy="709" fill="#ADD1B2" rx="11" ry="11" style="stroke:#A80036;stroke-width:1.0;"/><path d="M266.6438,704.6719 C265.7063,704.2344 265.1125,704.0938 264.2375,704.0938 C261.6125,704.0938 259.6125,706.1719 259.6125,708.8906 L259.6125,710.0156 C259.6125,712.5938 261.7219,714.4844 264.6125,714.4844 C265.8313,714.4844 266.9875,714.1875 267.7375,713.6406 C268.3156,713.2344 268.6438,712.7813 268.6438,712.3906 C268.6438,711.9375 268.2531,711.5469 267.7844,711.5469 C267.5656,711.5469 267.3625,711.625 267.175,711.8125 C266.7219,712.2969 266.7219,712.2969 266.5344,712.3906 C266.1125,712.6563 265.425,712.7813 264.6594,712.7813 C262.6125,712.7813 261.3156,711.6875 261.3156,709.9844 L261.3156,708.8906 C261.3156,707.1094 262.5656,705.7969 264.3,705.7969 C264.8781,705.7969 265.4875,705.9531 265.9563,706.2031 C266.4406,706.4844 266.6125,706.7031 266.7063,707.1094 C266.7688,707.5156 266.8,707.6406 266.9406,707.7656 C267.0813,707.9063 267.3156,708.0156 267.5344,708.0156 C267.8,708.0156 268.0656,707.875 268.2375,707.6563 C268.3469,707.5 268.3781,707.3125 268.3781,706.8906 L268.3781,705.4688 C268.3781,705.0313 268.3625,704.9063 268.2688,704.75 C268.1125,704.4844 267.8313,704.3438 267.5344,704.3438 C267.2375,704.3438 267.0344,704.4375 266.8156,704.75 L266.6438,704.6719 Z " fill="#000000"/><text fill="#000000" font-family="sans-serif" font-size="12" lengthAdjust="spacingAndGlyphs" textLength="61" x="284.7" y="713.1543">StockData</text><line style="stroke:#A80036;stroke-width:1.5;" x1="221.5" x2="376.5" y1="725" y2="725"/><text fill="#000000" font-family="sans-serif" font-size="11" lengthAdjust="spacingAndGlyphs" textLength="145" x="226.5" y="739.2104">is_primary_source = True</text><text fill="#000000" font-family="sans-serif" font-size="11" lengthAdjust="spacingAndGlyphs" textLength="136" x="226.5" y="752.0151">is_stock_specific = True</text><line style="stroke:#A80036;stroke-width:1.5;" x1="221.5" x2="376.5" y1="758.6094" y2="758.6094"/><!--MD5=[7be1b09e81db6d29aeb0dd1ea53a6d3c]
class RandomizedStockData--><rect codeLine="22" fill="#FEFECE" filter="url(#f4oruxqjyopc7)" height="86.4141" id="RandomizedStockData" style="stroke:#A80036;stroke-width:1.5;" width="167" x="117.5" y="840.5"/><ellipse cx="132.5" cy="856.5" fill="#ADD1B2" rx="11" ry="11" style="stroke:#A80036;stroke-width:1.0;"/><path d="M134.8438,852.1719 C133.9063,851.7344 133.3125,851.5938 132.4375,851.5938 C129.8125,851.5938 127.8125,853.6719 127.8125,856.3906 L127.8125,857.5156 C127.8125,860.0938 129.9219,861.9844 132.8125,861.9844 C134.0313,861.9844 135.1875,861.6875 135.9375,861.1406 C136.5156,860.7344 136.8438,860.2813 136.8438,859.8906 C136.8438,859.4375 136.4531,859.0469 135.9844,859.0469 C135.7656,859.0469 135.5625,859.125 135.375,859.3125 C134.9219,859.7969 134.9219,859.7969 134.7344,859.8906 C134.3125,860.1563 133.625,860.2813 132.8594,860.2813 C130.8125,860.2813 129.5156,859.1875 129.5156,857.4844 L129.5156,856.3906 C129.5156,854.6094 130.7656,853.2969 132.5,853.2969 C133.0781,853.2969 133.6875,853.4531 134.1563,853.7031 C134.6406,853.9844 134.8125,854.2031 134.9063,854.6094 C134.9688,855.0156 135,855.1406 135.1406,855.2656 C135.2813,855.4063 135.5156,855.5156 135.7344,855.5156 C136,855.5156 136.2656,855.375 136.4375,855.1563 C136.5469,855 136.5781,854.8125 136.5781,854.3906 L136.5781,852.9688 C136.5781,852.5313 136.5625,852.4063 136.4688,852.25 C136.3125,851.9844 136.0313,851.8438 135.7344,851.8438 C135.4375,851.8438 135.2344,851.9375 135.0156,852.25 L134.8438,852.1719 Z " fill="#000000"/><text fill="#000000" font-family="sans-serif" font-size="12" lengthAdjust="spacingAndGlyphs" textLength="135" x="146.5" y="860.6543">RandomizedStockData</text><line style="stroke:#A80036;stroke-width:1.5;" x1="118.5" x2="283.5" y1="872.5" y2="872.5"/><text fill="#000000" font-family="sans-serif" font-size="11" lengthAdjust="spacingAndGlyphs" textLength="56" x="123.5" y="886.7104">float error</text><text fill="#000000" font-family="sans-serif" font-size="11" lengthAdjust="spacingAndGlyphs" textLength="130" x="123.5" y="899.5151">String[] affected_fields</text><text fill="#000000" font-family="sans-serif" font-size="11" lengthAdjust="spacingAndGlyphs" textLength="100" x="123.5" y="912.3198">StockData source</text><line style="stroke:#A80036;stroke-width:1.5;" x1="118.5" x2="283.5" y1="918.9141" y2="918.9141"/><!--MD5=[693730f1785e76dfa8eef5bf68870a44]
class RealStockData--><rect codeLine="28" fill="#FEFECE" filter="url(#f4oruxqjyopc7)" height="60.8047" id="RealStockData" style="stroke:#A80036;stroke-width:1.5;" width="139" x="327.5" y="852.5"/><ellipse cx="351.95" cy="868.5" fill="#ADD1B2" rx="11" ry="11" style="stroke:#A80036;stroke-width:1.0;"/><path d="M354.2938,864.1719 C353.3563,863.7344 352.7625,863.5938 351.8875,863.5938 C349.2625,863.5938 347.2625,865.6719 347.2625,868.3906 L347.2625,869.5156 C347.2625,872.0938 349.3719,873.9844 352.2625,873.9844 C353.4813,873.9844 354.6375,873.6875 355.3875,873.1406 C355.9656,872.7344 356.2938,872.2813 356.2938,871.8906 C356.2938,871.4375 355.9031,871.0469 355.4344,871.0469 C355.2156,871.0469 355.0125,871.125 354.825,871.3125 C354.3719,871.7969 354.3719,871.7969 354.1844,871.8906 C353.7625,872.1563 353.075,872.2813 352.3094,872.2813 C350.2625,872.2813 348.9656,871.1875 348.9656,869.4844 L348.9656,868.3906 C348.9656,866.6094 350.2156,865.2969 351.95,865.2969 C352.5281,865.2969 353.1375,865.4531 353.6063,865.7031 C354.0906,865.9844 354.2625,866.2031 354.3563,866.6094 C354.4188,867.0156 354.45,867.1406 354.5906,867.2656 C354.7313,867.4063 354.9656,867.5156 355.1844,867.5156 C355.45,867.5156 355.7156,867.375 355.8875,867.1563 C355.9969,867 356.0281,866.8125 356.0281,866.3906 L356.0281,864.9688 C356.0281,864.5313 356.0125,864.4063 355.9188,864.25 C355.7625,863.9844 355.4813,863.8438 355.1844,863.8438 C354.8875,863.8438 354.6844,863.9375 354.4656,864.25 L354.2938,864.1719 Z " fill="#000000"/><text fill="#000000" font-family="sans-serif" font-size="12" lengthAdjust="spacingAndGlyphs" textLength="86" x="368.05" y="872.6543">RealStockData</text><line style="stroke:#A80036;stroke-width:1.5;" x1="328.5" x2="465.5" y1="884.5" y2="884.5"/><text fill="#000000" font-family="sans-serif" font-size="11" lengthAdjust="spacingAndGlyphs" textLength="127" x="333.5" y="898.7104">String[] stock_symbols</text><line style="stroke:#A80036;stroke-width:1.5;" x1="328.5" x2="465.5" y1="905.3047" y2="905.3047"/><!--MD5=[101e3b28a0212dbd31306da7f761b9ed]
class GeneratedStockData--><rect codeLine="32" fill="#FEFECE" filter="url(#f4oruxqjyopc7)" height="112.0234" id="GeneratedStockData" style="stroke:#A80036;stroke-width:1.5;" width="158" x="502" y="827"/><ellipse cx="517.45" cy="843" fill="#ADD1B2" rx="11" ry="11" style="stroke:#A80036;stroke-width:1.0;"/><path d="M519.7938,838.6719 C518.8563,838.2344 518.2625,838.0938 517.3875,838.0938 C514.7625,838.0938 512.7625,840.1719 512.7625,842.8906 L512.7625,844.0156 C512.7625,846.5938 514.8719,848.4844 517.7625,848.4844 C518.9813,848.4844 520.1375,848.1875 520.8875,847.6406 C521.4656,847.2344 521.7938,846.7813 521.7938,846.3906 C521.7938,845.9375 521.4031,845.5469 520.9344,845.5469 C520.7156,845.5469 520.5125,845.625 520.325,845.8125 C519.8719,846.2969 519.8719,846.2969 519.6844,846.3906 C519.2625,846.6563 518.575,846.7813 517.8094,846.7813 C515.7625,846.7813 514.4656,845.6875 514.4656,843.9844 L514.4656,842.8906 C514.4656,841.1094 515.7156,839.7969 517.45,839.7969 C518.0281,839.7969 518.6375,839.9531 519.1063,840.2031 C519.5906,840.4844 519.7625,840.7031 519.8563,841.1094 C519.9188,841.5156 519.95,841.6406 520.0906,841.7656 C520.2313,841.9063 520.4656,842.0156 520.6844,842.0156 C520.95,842.0156 521.2156,841.875 521.3875,841.6563 C521.4969,841.5 521.5281,841.3125 521.5281,840.8906 L521.5281,839.4688 C521.5281,839.0313 521.5125,838.9063 521.4188,838.75 C521.2625,838.4844 520.9813,838.3438 520.6844,838.3438 C520.3875,838.3438 520.1844,838.4375 519.9656,838.75 L519.7938,838.6719 Z " fill="#000000"/><text fill="#000000" font-family="sans-serif" font-size="12" lengthAdjust="spacingAndGlyphs" textLength="125" x="531.55" y="847.1543">GeneratedStockData</text><line style="stroke:#A80036;stroke-width:1.5;" x1="503" x2="659" y1="859" y2="859"/><text fill="#000000" font-family="sans-serif" font-size="11" lengthAdjust="spacingAndGlyphs" textLength="146" x="508" y="873.2104">String evaluation_formula</text><text fill="#000000" font-family="sans-serif" font-size="11" lengthAdjust="spacingAndGlyphs" textLength="126" x="508" y="886.0151">String reference_date</text><text fill="#000000" font-family="sans-serif" font-size="11" lengthAdjust="spacingAndGlyphs" textLength="65" x="508" y="898.8198">float period</text><text fill="#000000" font-family="sans-serif" font-size="11" lengthAdjust="spacingAndGlyphs" textLength="116" x="508" y="911.6245">float minimum_price</text><text fill="#000000" font-family="sans-serif" font-size="11" lengthAdjust="spacingAndGlyphs" textLength="86" x="508" y="924.4292">float amplitude</text><line style="stroke:#A80036;stroke-width:1.5;" x1="503" x2="659" y1="931.0234" y2="931.0234"/><!--MD5=[6a0335cd63fed47ca78ff6b4785831e6]
class StockDataAnalysis--><rect codeLine="40" fill="#FEFECE" filter="url(#f4oruxqjyopc7)" height="73.6094" id="StockDataAnalysis" style="stroke:#A80036;stroke-width:1.5;" width="161" x="76.5" y="557"/><ellipse cx="100.05" cy="573" fill="#ADD1B2" rx="11" ry="11" style="stroke:#A80036;stroke-width:1.0;"/><path d="M102.3938,568.6719 C101.4563,568.2344 100.8625,568.0938 99.9875,568.0938 C97.3625,568.0938 95.3625,570.1719 95.3625,572.8906 L95.3625,574.0156 C95.3625,576.5938 97.4719,578.4844 100.3625,578.4844 C101.5813,578.4844 102.7375,578.1875 103.4875,577.6406 C104.0656,577.2344 104.3938,576.7813 104.3938,576.3906 C104.3938,575.9375 104.0031,575.5469 103.5344,575.5469 C103.3156,575.5469 103.1125,575.625 102.925,575.8125 C102.4719,576.2969 102.4719,576.2969 102.2844,576.3906 C101.8625,576.6563 101.175,576.7813 100.4094,576.7813 C98.3625,576.7813 97.0656,575.6875 97.0656,573.9844 L97.0656,572.8906 C97.0656,571.1094 98.3156,569.7969 100.05,569.7969 C100.6281,569.7969 101.2375,569.9531 101.7063,570.2031 C102.1906,570.4844 102.3625,570.7031 102.4563,571.1094 C102.5188,571.5156 102.55,571.6406 102.6906,571.7656 C102.8313,571.9063 103.0656,572.0156 103.2844,572.0156 C103.55,572.0156 103.8156,571.875 103.9875,571.6563 C104.0969,571.5 104.1281,571.3125 104.1281,570.8906 L104.1281,569.4688 C104.1281,569.0313 104.1125,568.9063 104.0188,568.75 C103.8625,568.4844 103.5813,568.3438 103.2844,568.3438 C102.9875,568.3438 102.7844,568.4375 102.5656,568.75 L102.3938,568.6719 Z " fill="#000000"/><text fill="#000000" font-family="sans-serif" font-size="12" lengthAdjust="spacingAndGlyphs" textLength="110" x="115.95" y="577.1543">StockDataAnalysis</text><line style="stroke:#A80036;stroke-width:1.5;" x1="77.5" x2="236.5" y1="589" y2="589"/><text fill="#000000" font-family="sans-serif" font-size="11" lengthAdjust="spacingAndGlyphs" textLength="100" x="82.5" y="603.2104">StockData source</text><text fill="#000000" font-family="sans-serif" font-size="11" lengthAdjust="spacingAndGlyphs" textLength="149" x="82.5" y="616.0151">is_primary_source = False</text><line style="stroke:#A80036;stroke-width:1.5;" x1="77.5" x2="236.5" y1="622.6094" y2="622.6094"/><!--MD5=[63e5b6ed0db372f759937b250f7ab201]
class RunningAverageAnalysis--><rect codeLine="45" fill="#FEFECE" filter="url(#f4oruxqjyopc7)" height="60.8047" id="RunningAverageAnalysis" style="stroke:#A80036;stroke-width:1.5;" width="178" x="7" y="699.5"/><ellipse cx="22" cy="715.5" fill="#ADD1B2" rx="11" ry="11" style="stroke:#A80036;stroke-width:1.0;"/><path d="M24.3438,711.1719 C23.4063,710.7344 22.8125,710.5938 21.9375,710.5938 C19.3125,710.5938 17.3125,712.6719 17.3125,715.3906 L17.3125,716.5156 C17.3125,719.0938 19.4219,720.9844 22.3125,720.9844 C23.5313,720.9844 24.6875,720.6875 25.4375,720.1406 C26.0156,719.7344 26.3438,719.2813 26.3438,718.8906 C26.3438,718.4375 25.9531,718.0469 25.4844,718.0469 C25.2656,718.0469 25.0625,718.125 24.875,718.3125 C24.4219,718.7969 24.4219,718.7969 24.2344,718.8906 C23.8125,719.1563 23.125,719.2813 22.3594,719.2813 C20.3125,719.2813 19.0156,718.1875 19.0156,716.4844 L19.0156,715.3906 C19.0156,713.6094 20.2656,712.2969 22,712.2969 C22.5781,712.2969 23.1875,712.4531 23.6563,712.7031 C24.1406,712.9844 24.3125,713.2031 24.4063,713.6094 C24.4688,714.0156 24.5,714.1406 24.6406,714.2656 C24.7813,714.4063 25.0156,714.5156 25.2344,714.5156 C25.5,714.5156 25.7656,714.375 25.9375,714.1563 C26.0469,714 26.0781,713.8125 26.0781,713.3906 L26.0781,711.9688 C26.0781,711.5313 26.0625,711.4063 25.9688,711.25 C25.8125,710.9844 25.5313,710.8438 25.2344,710.8438 C24.9375,710.8438 24.7344,710.9375 24.5156,711.25 L24.3438,711.1719 Z " fill="#000000"/><text fill="#000000" font-family="sans-serif" font-size="12" lengthAdjust="spacingAndGlyphs" textLength="146" x="36" y="719.6543">RunningAverageAnalysis</text><line style="stroke:#A80036;stroke-width:1.5;" x1="8" x2="184" y1="731.5" y2="731.5"/><text fill="#000000" font-family="sans-serif" font-size="11" lengthAdjust="spacingAndGlyphs" textLength="112" x="13" y="745.7104">int number_of_days</text><line style="stroke:#A80036;stroke-width:1.5;" x1="8" x2="184" y1="752.3047" y2="752.3047"/><!--MD5=[eabd9cea03e4bda0a74478b63d968951]
class DecisionMaker--><rect codeLine="49" fill="#FEFECE" filter="url(#f4oruxqjyopc7)" height="73.6094" id="DecisionMaker" style="stroke:#A80036;stroke-width:1.5;" width="157" x="550.5" y="206"/><ellipse cx="581.7" cy="222" fill="#ADD1B2" rx="11" ry="11" style="stroke:#A80036;stroke-width:1.0;"/><path d="M584.0438,217.6719 C583.1063,217.2344 582.5125,217.0938 581.6375,217.0938 C579.0125,217.0938 577.0125,219.1719 577.0125,221.8906 L577.0125,223.0156 C577.0125,225.5938 579.1219,227.4844 582.0125,227.4844 C583.2313,227.4844 584.3875,227.1875 585.1375,226.6406 C585.7156,226.2344 586.0438,225.7813 586.0438,225.3906 C586.0438,224.9375 585.6531,224.5469 585.1844,224.5469 C584.9656,224.5469 584.7625,224.625 584.575,224.8125 C584.1219,225.2969 584.1219,225.2969 583.9344,225.3906 C583.5125,225.6563 582.825,225.7813 582.0594,225.7813 C580.0125,225.7813 578.7156,224.6875 578.7156,222.9844 L578.7156,221.8906 C578.7156,220.1094 579.9656,218.7969 581.7,218.7969 C582.2781,218.7969 582.8875,218.9531 583.3563,219.2031 C583.8406,219.4844 584.0125,219.7031 584.1063,220.1094 C584.1688,220.5156 584.2,220.6406 584.3406,220.7656 C584.4813,220.9063 584.7156,221.0156 584.9344,221.0156 C585.2,221.0156 585.4656,220.875 585.6375,220.6563 C585.7469,220.5 585.7781,220.3125 585.7781,219.8906 L585.7781,218.4688 C585.7781,218.0313 585.7625,217.9063 585.6688,217.75 C585.5125,217.4844 585.2313,217.3438 584.9344,217.3438 C584.6375,217.3438 584.4344,217.4375 584.2156,217.75 L584.0438,217.6719 Z " fill="#000000"/><text fill="#000000" font-family="sans-serif" font-size="12" lengthAdjust="spacingAndGlyphs" textLength="89" x="599.3" y="226.1543">DecisionMaker</text><line style="stroke:#A80036;stroke-width:1.5;" x1="551.5" x2="706.5" y1="238" y2="238"/><line style="stroke:#A80036;stroke-width:1.5;" x1="551.5" x2="706.5" y1="246" y2="246"/><text fill="#000000" font-family="sans-serif" font-size="11" lengthAdjust="spacingAndGlyphs" textLength="116" x="556.5" y="260.2104">check_data_source()</text><text fill="#000000" font-family="sans-serif" font-size="11" lengthAdjust="spacingAndGlyphs" textLength="145" x="556.5" y="273.0151">make_decision_for_data()</text><!--MD5=[d39dc19844f21be799ed8a1090d8819d]
class ReinforcementLearningDecisionMaker--><rect codeLine="54" fill="#FEFECE" filter="url(#f4oruxqjyopc7)" height="86.4141" id="ReinforcementLearningDecisionMaker" style="stroke:#A80036;stroke-width:1.5;" width="259" x="499.5" y="375"/><ellipse cx="514.5" cy="391" fill="#ADD1B2" rx="11" ry="11" style="stroke:#A80036;stroke-width:1.0;"/><path d="M516.8438,386.6719 C515.9063,386.2344 515.3125,386.0938 514.4375,386.0938 C511.8125,386.0938 509.8125,388.1719 509.8125,390.8906 L509.8125,392.0156 C509.8125,394.5938 511.9219,396.4844 514.8125,396.4844 C516.0313,396.4844 517.1875,396.1875 517.9375,395.6406 C518.5156,395.2344 518.8438,394.7813 518.8438,394.3906 C518.8438,393.9375 518.4531,393.5469 517.9844,393.5469 C517.7656,393.5469 517.5625,393.625 517.375,393.8125 C516.9219,394.2969 516.9219,394.2969 516.7344,394.3906 C516.3125,394.6563 515.625,394.7813 514.8594,394.7813 C512.8125,394.7813 511.5156,393.6875 511.5156,391.9844 L511.5156,390.8906 C511.5156,389.1094 512.7656,387.7969 514.5,387.7969 C515.0781,387.7969 515.6875,387.9531 516.1563,388.2031 C516.6406,388.4844 516.8125,388.7031 516.9063,389.1094 C516.9688,389.5156 517,389.6406 517.1406,389.7656 C517.2813,389.9063 517.5156,390.0156 517.7344,390.0156 C518,390.0156 518.2656,389.875 518.4375,389.6563 C518.5469,389.5 518.5781,389.3125 518.5781,388.8906 L518.5781,387.4688 C518.5781,387.0313 518.5625,386.9063 518.4688,386.75 C518.3125,386.4844 518.0313,386.3438 517.7344,386.3438 C517.4375,386.3438 517.2344,386.4375 517.0156,386.75 L516.8438,386.6719 Z " fill="#000000"/><text fill="#000000" font-family="sans-serif" font-size="12" lengthAdjust="spacingAndGlyphs" textLength="227" x="528.5" y="395.1543">ReinforcementLearningDecisionMaker</text><line style="stroke:#A80036;stroke-width:1.5;" x1="500.5" x2="757.5" y1="407" y2="407"/><line style="stroke:#A80036;stroke-width:1.5;" x1="500.5" x2="757.5" y1="415" y2="415"/><text fill="#000000" font-family="sans-serif" font-size="11" lengthAdjust="spacingAndGlyphs" textLength="160" x="505.5" y="429.2104">generate_possible_actions()</text><text fill="#000000" font-family="sans-serif" font-size="11" lengthAdjust="spacingAndGlyphs" textLength="74" x="505.5" y="442.0151">load_model()</text><text fill="#000000" font-family="sans-serif" font-size="11" lengthAdjust="spacingAndGlyphs" textLength="78" x="505.5" y="454.8198">save_model()</text><!--MD5=[e36a4c0f7055b067b077b74a1222e806]
class Simulation--><rect codeLine="60" fill="#FEFECE" filter="url(#f4oruxqjyopc7)" height="137.6328" id="Simulation" style="stroke:#A80036;stroke-width:1.5;" width="188" x="296" y="7"/><ellipse cx="355.25" cy="23" fill="#ADD1B2" rx="11" ry="11" style="stroke:#A80036;stroke-width:1.0;"/><path d="M357.5938,18.6719 C356.6563,18.2344 356.0625,18.0938 355.1875,18.0938 C352.5625,18.0938 350.5625,20.1719 350.5625,22.8906 L350.5625,24.0156 C350.5625,26.5938 352.6719,28.4844 355.5625,28.4844 C356.7813,28.4844 357.9375,28.1875 358.6875,27.6406 C359.2656,27.2344 359.5938,26.7813 359.5938,26.3906 C359.5938,25.9375 359.2031,25.5469 358.7344,25.5469 C358.5156,25.5469 358.3125,25.625 358.125,25.8125 C357.6719,26.2969 357.6719,26.2969 357.4844,26.3906 C357.0625,26.6563 356.375,26.7813 355.6094,26.7813 C353.5625,26.7813 352.2656,25.6875 352.2656,23.9844 L352.2656,22.8906 C352.2656,21.1094 353.5156,19.7969 355.25,19.7969 C355.8281,19.7969 356.4375,19.9531 356.9063,20.2031 C357.3906,20.4844 357.5625,20.7031 357.6563,21.1094 C357.7188,21.5156 357.75,21.6406 357.8906,21.7656 C358.0313,21.9063 358.2656,22.0156 358.4844,22.0156 C358.75,22.0156 359.0156,21.875 359.1875,21.6563 C359.2969,21.5 359.3281,21.3125 359.3281,20.8906 L359.3281,19.4688 C359.3281,19.0313 359.3125,18.9063 359.2188,18.75 C359.0625,18.4844 358.7813,18.3438 358.4844,18.3438 C358.1875,18.3438 357.9844,18.4375 357.7656,18.75 L357.5938,18.6719 Z " fill="#000000"/><text fill="#000000" font-family="sans-serif" font-size="12" lengthAdjust="spacingAndGlyphs" textLength="61" x="375.75" y="27.1543">Simulation</text><line style="stroke:#A80036;stroke-width:1.5;" x1="297" x2="483" y1="39" y2="39"/><text fill="#000000" font-family="sans-serif" font-size="11" lengthAdjust="spacingAndGlyphs" textLength="140" x="302" y="53.2104">DataSource data_source</text><text fill="#000000" font-family="sans-serif" font-size="11" lengthAdjust="spacingAndGlyphs" textLength="76" x="302" y="66.0151">Data balance</text><text fill="#000000" font-family="sans-serif" font-size="11" lengthAdjust="spacingAndGlyphs" textLength="87" x="302" y="78.8198">Data net_worth</text><text fill="#000000" font-family="sans-serif" font-size="11" lengthAdjust="spacingAndGlyphs" textLength="124" x="302" y="91.6245">Data stock_ownership</text><text fill="#000000" font-family="sans-serif" font-size="11" lengthAdjust="spacingAndGlyphs" textLength="106" x="302" y="104.4292">Data stock_actions</text><text fill="#000000" font-family="sans-serif" font-size="11" lengthAdjust="spacingAndGlyphs" textLength="176" x="302" y="117.2339">DecisionMaker decision_maker</text><line style="stroke:#A80036;stroke-width:1.5;" x1="297" x2="483" y1="123.8281" y2="123.8281"/><text fill="#000000" font-family="sans-serif" font-size="11" lengthAdjust="spacingAndGlyphs" textLength="90" x="302" y="138.0386">run_simulation()</text><!--MD5=[ab0a37ff795caa86008defd6ac53a639]
class SimulationData--><rect fill="#FEFECE" filter="url(#f4oruxqjyopc7)" height="48" id="SimulationData" style="stroke:#A80036;stroke-width:1.5;" width="120" x="352" y="569"/><ellipse cx="367" cy="585" fill="#ADD1B2" rx="11" ry="11" style="stroke:#A80036;stroke-width:1.0;"/><path d="M369.3438,580.6719 C368.4063,580.2344 367.8125,580.0938 366.9375,580.0938 C364.3125,580.0938 362.3125,582.1719 362.3125,584.8906 L362.3125,586.0156 C362.3125,588.5938 364.4219,590.4844 367.3125,590.4844 C368.5313,590.4844 369.6875,590.1875 370.4375,589.6406 C371.0156,589.2344 371.3438,588.7813 371.3438,588.3906 C371.3438,587.9375 370.9531,587.5469 370.4844,587.5469 C370.2656,587.5469 370.0625,587.625 369.875,587.8125 C369.4219,588.2969 369.4219,588.2969 369.2344,588.3906 C368.8125,588.6563 368.125,588.7813 367.3594,588.7813 C365.3125,588.7813 364.0156,587.6875 364.0156,585.9844 L364.0156,584.8906 C364.0156,583.1094 365.2656,581.7969 367,581.7969 C367.5781,581.7969 368.1875,581.9531 368.6563,582.2031 C369.1406,582.4844 369.3125,582.7031 369.4063,583.1094 C369.4688,583.5156 369.5,583.6406 369.6406,583.7656 C369.7813,583.9063 370.0156,584.0156 370.2344,584.0156 C370.5,584.0156 370.7656,583.875 370.9375,583.6563 C371.0469,583.5 371.0781,583.3125 371.0781,582.8906 L371.0781,581.4688 C371.0781,581.0313 371.0625,580.9063 370.9688,580.75 C370.8125,580.4844 370.5313,580.3438 370.2344,580.3438 C369.9375,580.3438 369.7344,580.4375 369.5156,580.75 L369.3438,580.6719 Z " fill="#000000"/><text fill="#000000" font-family="sans-serif" font-size="12" lengthAdjust="spacingAndGlyphs" textLength="88" x="381" y="589.1543">SimulationData</text><line style="stroke:#A80036;stroke-width:1.5;" x1="353" x2="471" y1="601" y2="601"/><line style="stroke:#A80036;stroke-width:1.5;" x1="353" x2="471" y1="609" y2="609"/><!--MD5=[eba1ee6a561b3add87ffe81715cc2562]
reverse link DataSource to Data--><path codeLine="71" d="M308.184,251.186 C334.634,261.145 331.981,303.444 322.896,342.824 " fill="none" id="DataSource-backto-Data" style="stroke:#A80036;stroke-width:1.0;"/><polygon fill="#FFFFFF" points="295,249,300.2652,253.9272,306.8385,250.9621,301.5733,246.0349,295,249" style="stroke:#A80036;stroke-width:1.0;"/><!--MD5=[3eaee2273459255743dc06a561ba130c]
reverse link Data to DataSource--><path codeLine="83" d="M268.728,323.48 C264.14,309.307 259.634,295.388 255.707,283.256 " fill="none" id="Data-backto-DataSource" style="stroke:#A80036;stroke-width:1.0;"/><polygon fill="none" points="275.488,321.635,274.988,342.819,262.168,325.947,275.488,321.635" style="stroke:#A80036;stroke-width:1.0;"/><!--MD5=[b9baa90092590646d9c41b675940b155]
reverse link StockDataAnalysis to StockData--><path codeLine="72" d="M250.934,604.793 C266.94,619.967 281.084,661.835 289.813,692.788 " fill="none" id="StockDataAnalysis-backto-StockData" style="stroke:#A80036;stroke-width:1.0;"/><polygon fill="#FFFFFF" points="239,599,242.651,605.2185,249.7954,604.2401,246.1444,598.0216,239,599" style="stroke:#A80036;stroke-width:1.0;"/><!--MD5=[c3385425de2ec6f9e6f227fabc986b52]
reverse link RandomizedStockData to StockData--><path codeLine="73" d="M297.234,901.3728 C312.265,879.8075 307.929,810.534 303.442,767.246 " fill="none" id="RandomizedStockData-backto-StockData" style="stroke:#A80036;stroke-width:1.0;"/><polygon fill="#FFFFFF" points="286,908,293.2002,908.3964,296.3354,901.9025,289.1352,901.5061,286,908" style="stroke:#A80036;stroke-width:1.0;"/><!--MD5=[74851d6219e4de25c574345b5bfc7538]
reverse link StockData to RandomizedStockData--><path codeLine="86" d="M264.497,784.163 C253.434,801.208 241.288,819.923 230.608,836.38 " fill="none" id="StockData-backto-RandomizedStockData" style="stroke:#A80036;stroke-width:1.0;"/><polygon fill="none" points="258.767,780.134,275.527,767.168,270.51,787.756,258.767,780.134" style="stroke:#A80036;stroke-width:1.0;"/><!--MD5=[0045b7c67305113ea45a2e63bd91ed88]
reverse link Simulation to DataSource--><path codeLine="74" d="M281.963,50.555 C231.925,63.253 232.612,150.734 237.691,202.944 " fill="none" id="Simulation-backto-DataSource" style="stroke:#A80036;stroke-width:1.0;"/><polygon fill="#FFFFFF" points="295,49,288.5684,45.7389,283.0845,50.4215,289.5161,53.6826,295,49" style="stroke:#A80036;stroke-width:1.0;"/><!--MD5=[809e94bc8a89804b2363a723b8ea14f5]
reverse link Simulation to Data--><path codeLine="75" d="M281.885,61.526 C176.481,70.084 124.226,181.611 166,283 C174.99,304.82 189.444,324.966 205.577,342.654 " fill="none" id="Simulation-backto-Data" style="stroke:#A80036;stroke-width:1.0;"/><polygon fill="#FFFFFF" points="295,61,288.8444,57.2439,283.0097,61.4813,289.1653,65.2374,295,61" style="stroke:#A80036;stroke-width:1.0;"/><!--MD5=[809e94bc8a89804b2363a723b8ea14f5]
reverse link Simulation to Data--><path codeLine="76" d="M497.642,77.252 C524.541,104.029 423.287,251.135 355.538,342.781 " fill="none" id="Simulation-backto-Data-1" style="stroke:#A80036;stroke-width:1.0;"/><polygon fill="#FFFFFF" points="485,73,489.4117,78.7041,496.3739,76.8256,491.9621,71.1215,485,73" style="stroke:#A80036;stroke-width:1.0;"/><!--MD5=[809e94bc8a89804b2363a723b8ea14f5]
reverse link Simulation to Data--><path codeLine="77" d="M498.459,97.301 C535.973,99.617 550.892,119.331 454,283 C438.778,308.712 416.858,331.978 394.273,351.635 " fill="none" id="Simulation-backto-Data-2" style="stroke:#A80036;stroke-width:1.0;"/><polygon fill="#FFFFFF" points="485,97,490.9088,101.1335,496.997,97.269,491.0882,93.1355,485,97" style="stroke:#A80036;stroke-width:1.0;"/><!--MD5=[809e94bc8a89804b2363a723b8ea14f5]
reverse link Simulation to Data--><path codeLine="78" d="M284.156,92.256 C275.74,116.214 316.945,191.897 319,203 C327.523,249.048 322.883,301.378 315.938,342.764 " fill="none" id="Simulation-backto-Data-3" style="stroke:#A80036;stroke-width:1.0;"/><polygon fill="#FFFFFF" points="295,85,287.7889,85.0125,285.027,91.6737,292.2381,91.6612,295,85" style="stroke:#A80036;stroke-width:1.0;"/><!--MD5=[726dc2738f4ffa3a3d3a7cab0ee763b4]
reverse link Simulation to DecisionMaker--><path codeLine="79" d="M498.158,110.013 C548.946,117.84 588.166,169.355 609.919,205.657 " fill="none" id="Simulation-backto-DecisionMaker" style="stroke:#A80036;stroke-width:1.0;"/><polygon fill="#FFFFFF" points="485,109,490.6751,113.449,496.9646,109.9217,491.2895,105.4727,485,109" style="stroke:#A80036;stroke-width:1.0;"/><!--MD5=[03b2416f8b6878712fb9b274e12faaad]
reverse link DecisionMaker to ReinforcementLearningDecisionMaker--><path codeLine="81" d="M629,300.44 C629,324.712 629,352.591 629,374.996 " fill="none" id="DecisionMaker-backto-ReinforcementLearningDecisionMaker" style="stroke:#A80036;stroke-width:1.0;"/><polygon fill="none" points="622,300.267,629,280.266,636,300.266,622,300.267" style="stroke:#A80036;stroke-width:1.0;"/><!--MD5=[a86c434ccc94176b97596b2bb48c2bbc]
reverse link Data to StockData--><path codeLine="85" d="M299,513.557 C299,574.059 299,649.129 299,692.794 " fill="none" id="Data-backto-StockData" style="stroke:#A80036;stroke-width:1.0;"/><polygon fill="none" points="292,513.253,299,493.253,306,513.253,292,513.253" style="stroke:#A80036;stroke-width:1.0;"/><!--MD5=[603f68598fd1c66baefe9197ec8a3216]
reverse link StockData to RealStockData--><path codeLine="87" d="M333.566,784.26 C348.371,807.071 365.106,832.857 377.669,852.2137 " fill="none" id="StockData-backto-RealStockData" style="stroke:#A80036;stroke-width:1.0;"/><polygon fill="none" points="327.49,787.756,322.473,767.168,339.233,780.134,327.49,787.756" style="stroke:#A80036;stroke-width:1.0;"/><!--MD5=[640d2b1fcbe5a2a2387a22f7e1b15589]
reverse link StockData to GeneratedStockData--><path codeLine="88" d="M388.029,776.351 C418.583,792.139 452.908,810.126 484,827 C489.87,830.186 495.92,833.512 501.994,836.882 " fill="none" id="StockData-backto-GeneratedStockData" style="stroke:#A80036;stroke-width:1.0;"/><polygon fill="none" points="384.617,782.467,370.043,767.085,391.028,770.021,384.617,782.467" style="stroke:#A80036;stroke-width:1.0;"/><!--MD5=[7a5c68d80f96634fad1603c112c50c88]
reverse link Data to StockDataAnalysis--><path codeLine="90" d="M225.43,508.631 C212.674,524.172 200.029,539.578 189.144,552.838 " fill="none" id="Data-backto-StockDataAnalysis" style="stroke:#A80036;stroke-width:1.0;"/><polygon fill="none" points="220.061,504.138,238.161,493.12,230.883,513.021,220.061,504.138" style="stroke:#A80036;stroke-width:1.0;"/><!--MD5=[5d21f6b380b7ed6b3767789e0aec6f8c]
reverse link StockDataAnalysis to RunningAverageAnalysis--><path codeLine="91" d="M131.021,651.496 C123.548,668.034 115.705,685.392 109.34,699.478 " fill="none" id="StockDataAnalysis-backto-RunningAverageAnalysis" style="stroke:#A80036;stroke-width:1.0;"/><polygon fill="none" points="124.742,648.391,139.356,633.048,137.5,654.156,124.742,648.391" style="stroke:#A80036;stroke-width:1.0;"/><!--MD5=[135835acb9c8f4485812a063f7e75140]
reverse link Data to SimulationData--><path codeLine="93" d="M358.367,509.889 C372.707,531.843 386.8,553.419 396.938,568.941 " fill="none" id="Data-backto-SimulationData" style="stroke:#A80036;stroke-width:1.0;"/><polygon fill="none" points="352.491,513.693,347.414,493.12,364.212,506.037,352.491,513.693" style="stroke:#A80036;stroke-width:1.0;"/><!--MD5=[2b1785fea4906a9c1f2fed62ed3e6866]
@startuml
class DataSource {
  Data[] sources
  add_source()
}

class Data {
  DataFrame data
  boolean is_primary_source
  boolean is_stock_specific
  get_data_for_date()
  get_data_for_date_range()
  get_available_dates()
  get_available_dates_in_range()
  add_data_for_date()
}

class StockData {
  is_primary_source = True
  is_stock_specific = True
}

class RandomizedStockData {
  float error
  String[] affected_fields
  StockData source
}

class RealStockData {
  String[] stock_symbols
}

class GeneratedStockData {
  String evaluation_formula
  String reference_date
  float period
  float minimum_price
  float amplitude
}

class StockDataAnalysis {
  StockData source
  is_primary_source = False
}

class RunningAverageAnalysis {
  int number_of_days
}

class DecisionMaker {
  check_data_source()
  make_decision_for_data()
}

class ReinforcementLearningDecisionMaker {
  generate_possible_actions()
  load_model()
  save_model()
}

class Simulation {
  DataSource data_source
  Data balance
  Data net_worth
  Data stock_ownership
  Data stock_actions
  DecisionMaker decision_maker
  run_simulation()
}


DataSource::sources o- - Data
StockDataAnalysis::source o- - StockData
RandomizedStockData::source o- - StockData
Simulation::data_source o- - DataSource
Simulation::balance o- - Data
Simulation::net_worth o- - Data
Simulation::stock_actions o- - Data
Simulation::stock_ownership o- - Data
Simulation::decision_maker o- - DecisionMaker

DecisionMaker <|- - ReinforcementLearningDecisionMaker

Data <|- - DataSource

Data <|- - StockData
StockData <|- - RandomizedStockData
StockData <|- - RealStockData
StockData <|- - GeneratedStockData

Data <|- - StockDataAnalysis
StockDataAnalysis <|- - RunningAverageAnalysis

Data <|- - SimulationData
@enduml

PlantUML version 1.2020.27beta3(Unknown compile time)
(GPL source distribution)
Java Runtime: Java(TM) SE Runtime Environment
JVM: Java HotSpot(TM) 64-Bit Server VM
Default Encoding: UTF-8
Language: en
Country: US
--></g></svg>